<svg width="197" height="32" viewBox="0 0 197 32" fill="none" xmlns="http://www.w3.org/2000/svg">
<path d="M196.804 0.494843H176.681V4.61855C176.681 4.61855 177.916 1.31958 179.65 1.31958L184 1.31958V29.0309C184 29.9419 182.515 30.6804 182.515 30.6804L191.361 30.6804C191.361 30.6804 189.547 30.0874 189.547 29.0309V14.3505V13.5258V1.31958H194C195.691 1.31958 196.804 4.61855 196.804 4.61855V0.494843Z" fill="black"/>
<path d="M161.505 0.494843H143.021C143.021 0.494843 144.67 1.64948 144.67 2.56047V29.0309C144.67 29.9419 143.185 30.6804 143.185 30.6804H150.289H161.505V26.5567C161.505 26.5567 160.392 29.8557 158.701 29.8557H150.289V26.1406V25.3158V16H153.917C156.722 16 157.216 18.3093 157.216 18.3093V13.1959C157.216 13.1959 156.886 15.1753 153.917 15.1753H150.289V1.31958H158.701C160.392 1.31958 161.505 4.61855 161.505 4.61855V0.494843Z" fill="black"/>
<path d="M126.206 6.76289L125.876 2.80412C125.876 2.80412 122.742 0 117.464 0C112.186 0 109.052 4.28866 109.052 8.08247C109.052 11.8763 110.928 16.1082 117.464 18.8041C124 21.5 124.722 23.9742 124.722 25.2371C124.722 26.5 124.283 29.866 118.289 31.0103C112.294 32.1546 108.722 23.9175 108.722 23.9175V27.5464C108.722 27.5464 112.021 32 118.289 32C124.557 32 127.691 26.7217 127.691 22.1031C127.691 17.4845 123 15 117.464 12.701C111.928 10.4021 111.196 7.58763 111.196 6.10309C111.196 4.61856 111.928 0.479382 117.464 0.989691C123 1.5 126.206 6.76289 126.206 6.76289Z" fill="black"/>
<path fill-rule="evenodd" clip-rule="evenodd" d="M70.5 0.65979C70.5 0.65979 72.4794 1.81443 72.4794 2.47422V29.1959C72.4794 29.8557 71.3247 30.6804 71.3247 30.6804H78.7218C78.7218 30.6804 77.5671 30.0206 77.5671 29.1959V16.1649H80.5362C81.5259 16.1649 82.5156 17.1546 83.1754 18.6392C83.8352 20.1237 88.4537 30.6804 88.4537 30.6804H96.0414C96.0414 30.6804 94.3919 29.8557 94.062 29.1959C93.9137 28.8993 92.7323 26.4698 91.4316 23.795C89.8385 20.5189 88.0664 16.8747 87.794 16.3299C87.2991 15.3402 85.8146 15.3402 85.8146 15.3402C85.8146 15.3402 92 14.1031 92 8C92 2.5567 87.2991 0.65979 85.3197 0.65979H70.5ZM77.5671 1.64948C77.5671 1.64948 81.0311 1.64948 81.8558 1.64948C82.6805 1.64948 86.8043 2.14433 86.8043 8.41237C86.8043 14.6804 83.0104 15.4227 82.3507 15.4227H77.5671V1.64948Z" fill="black"/>
<path fill-rule="evenodd" clip-rule="evenodd" d="M44.2479 1.15463C44.2479 1.15463 33.1963 27.0515 32.5365 28.5361C31.8768 30.0206 29.7324 30.6804 29.7324 30.6804H35.5056C35.5056 30.6804 33.8561 29.6907 34.0211 29.1959C34.186 28.701 37.8289 19.6289 37.8289 19.6289H45.8806C45.8806 19.6289 49.4321 28.5938 49.6912 29.1959C49.9503 29.798 48.7015 30.6804 48.7015 30.6804H56.9489C56.9489 30.6804 55.7943 30.0206 55.4644 29.1959L44.2479 1.15463ZM41.9386 9.73195L45.5521 18.8041H38.1714L41.9386 9.73195Z" fill="black"/>
<path d="M18.6808 0.494843H0.196289C0.196289 0.494843 1.84577 1.64948 1.84577 2.56047V29.0309C1.84577 29.9419 0.361238 30.6804 0.361238 30.6804H9.27876C9.27876 30.6804 7.46433 30.0874 7.46433 29.0309V14.3505H11.0932C13.8973 14.3505 14.3922 16.9897 14.3922 16.9897V13.5258H7.46433V1.31958H15.8767C17.5676 1.31958 18.6808 4.61855 18.6808 4.61855V0.494843Z" fill="black"/>
</svg>
